<?xml version="1.0" encoding="UTF-8" standalone="no"?>
<svg
   width="222"
   height="28"
   viewBox="0 0 222 28"
   version="1.1"
   xmlns="http://www.w3.org/2000/svg">

  <g transform="translate(4.7365331,-49.365297)">
    <g transform="matrix(0.26458333,0,0,0.26458333,-88.654629,21.365297)">
      <path
         d="m 209.63614,207.29 v -80.938 h 34.15967 q 13.59741,0 21.32226,5.16748 a 16.21262,16.21262 0 0 1 7.72412,14.19678 v 0.76123 a 18.83222,18.83222 0 0 1 -2.9917,10.55274 17.96167,17.96167 0 0 1 -9.30176,6.85351 v 0.10889 q 7.72339,1.30518 11.74952,6.25537 a 18.778,18.778 0 0 1 4.0249,12.23828 v 1.08789 q 0,11.09619 -8.15918,17.40625 Q 260.00479,207.291 246.08,207.29 Z m 31.331,-50.25976 a 5.30168,5.30168 0 0 0 3.69873,-1.03369 q 1.08618,-1.03272 1.08789,-3.75293 0,-2.6111 -1.08789,-3.59034 a 5.51352,5.51352 0 0 0 -3.69873,-0.979 h -1.41406 v 9.356 z m -0.21777,28.9375 q 2.82788,0 3.9707,-1.19678 1.14258,-1.196 1.14258,-4.13379 0,-2.82788 -1.14258,-3.9707 -1.14185,-1.14258 -3.9707,-1.14258 h -1.19629 v 10.44385 z"
         transform="translate(107.53462,-12.21852)"
         id="path916"
         fill="#000000" />
      <path
         d="m 357.47793,207.29 h -32.31006 l -1.19677,-9.8999 h -11.42285 l -1.30518,9.8999 H 279.0419 l 17.84131,-80.938 h 42.53564 z M 317.33487,159.4233 315.268,175.415 h 5.87451 l -1.958,-15.9917 -0.87012,-7.50634 h -0.21777 z"
         transform="translate(107.53462,-12.21852)"
         id="path918"
         fill="#000000" />
      <path
         d="M 398.70743,207.29 H 367.48526 V 151.59081 H 353.56045 V 126.352 h 59.18067 v 25.23877 h -14.03369 z"
         transform="translate(107.53462,-12.21852)"
         id="path920"
         fill="#000000" />
      <path
         d="M 465.61075,207.29 H 434.38858 V 151.59081 H 420.46377 V 126.352 h 59.18067 v 25.23877 h -14.03369 z"
         transform="translate(107.53462,-12.21852)"
         id="path922"
         fill="#000000" />
      <path
         d="m 538.28018,207.29 h -52.10937 v -80.938 h 31.331 v 55.69922 h 20.77832 z"
         transform="translate(107.53462,-12.21852)"
         id="path924"
         fill="#000000" />
      <path
         d="m 601.267,207.29 h -56.352 v -80.938 h 55.26416 v 24.042 H 576.246 v 5.43945 h 21.32227 V 177.2646 H 576.246 v 5.43945 h 25.021 z"
         transform="translate(107.53462,-12.21852)"
         id="path926"
         fill="#000000" />
      <path
         d="m 644.997,207.29 v -80.938 h 35.90039 q 16.53516,0 24.53125,6.47266 7.99658,6.47388 7.99609,18.22217 v 1.74072 a 26.08111,26.08111 0 0 1 -2.99219,12.94531 15.40776,15.40776 0 0 1 -9.083,7.28907 v 0.10888 a 12.07507,12.07507 0 0 1 8.32226,6.47266 q 2.55469,5.05884 2.665,13.10889 v 5.76564 q 0.2168,6.09449 1.41406,8.812 h -30.8955 a 80.385,80.385 0 0 1 -0.87012,-12.83691 v -3.80759 a 8.71607,8.71607 0 0 0 -1.30567,-4.94971 4.60782,4.60782 0 0 0 -3.916,-1.57763 H 676.328 V 207.29 Z m 32.96289,-42.53613 a 3.83219,3.83219 0 0 0 3.209,-1.46875 q 1.14258,-1.4685 1.14258,-5.60254 v -1.523 q 0,-4.13305 -1.14258,-5.60254 a 3.83351,3.83351 0 0 0 -3.209,-1.46875 H 676.328 v 15.66561 z"
         transform="translate(107.53462,-12.21852)"
         id="path928"
         fill="#000000" />
      <path
         d="m 727.18545,200.5996 q -8.86816,-8.7561 -8.86621,-25.9458 v -15.66553 q 0,-17.07788 8.86621,-25.83691 8.86524,-8.7561 25.94629,-8.75781 17.07715,0 25.94532,8.75781 8.86523,8.7583 8.86621,25.83691 v 15.66553 q 0,17.08008 -8.91993,25.8916 -8.92236,8.81176 -25.8916,8.81153 -17.08153,0 -25.94629,-8.75733 z m 29.31836,-21.59424 v -24.15087 q 0,-4.89552 -3.37207,-4.89551 -3.26367,0 -3.26367,4.89551 v 24.15087 q 0,4.78785 3.26367,4.78663 3.37061,1e-5 3.37207,-4.78663 z"
         transform="translate(107.53462,-12.21852)"
         id="path930"
         fill="#000000" />
      <path
         d="m 839.61612,207.29 h -31.33106 v -20.99606 l -22.084,-59.9419 h 33.07226 l 4.24219,27.52295 0.43555,4.13428 h 0.1084 l 0.43554,-4.13428 4.13379,-27.52295 h 33.07131 l -22.084,59.9419 z"
         transform="translate(107.53462,-12.21852)"
         id="path932"
         fill="#000000" />
      <path
         d="m 931.2167,207.29 h -32.31054 l -1.19629,-9.8999 H 886.287 l -1.30567,9.8999 h -32.20115 l 17.8418,-80.938 h 42.53613 z m -40.14257,-47.8667 -2.06739,15.9917 h 5.875 l -1.958,-15.9917 -0.87109,-7.50634 h -0.2168 z"
         transform="translate(107.53462,-12.21852)"
         id="path934"
         fill="#000000" />
      <path
         d="M 988.76358,207.29 H 936.6542 v -80.938 h 31.33106 v 55.69922 h 20.77832 z"
         transform="translate(107.53462,-12.21852)"
         id="path936"
         fill="#000000" />
      <path
         d="m 1051.7509,207.29 h -56.35256 v -80.938 h 55.26466 v 24.042 h -23.9336 v 5.43945 h 21.3223 v 21.43115 h -21.3223 v 5.43945 h 25.0215 z"
         transform="translate(107.53462,-12.21852)"
         id="path938"
         fill="#000000" />
    </g>
  </g>
</svg>
