<?xml version="1.0" encoding="UTF-8"?>
<svg xmlns="http://www.w3.org/2000/svg" version="1.1" width="170" height="28" viewBox="0 0 170 28">
  <g transform="scale(0.1609,0.1609) translate(0,0)">
    <g id="CREATIVE" transform="translate(0 -338.54)">
      <path d="M14.8,498.47c-9.44-8.03-14.15-20.09-14.15-36.16,0-6.78.89-14.38,2.67-22.78l6.46-30.3c5.05-23.59,14.6-41.32,28.64-53.19,14.04-11.87,32.27-17.8,54.71-17.8,37.44,0,56.16,15.56,56.16,46.67,0,6.05-.82,13.13-2.45,21.23l-.67,3.1h-54.15l2.01-9.29c.45-2.5.67-4.64.67-6.41,0-7.08-3.57-10.62-10.7-10.62-4.46,0-8.21,1.51-11.25,4.53-3.05,3.02-5.31,8.15-6.8,15.37l-9.36,43.57c-.6,2.8-.89,5.53-.89,8.18,0,7.67,3.49,11.5,10.47,11.5,8.91,0,14.71-5.6,17.38-16.81l2.01-9.29h53.93l-.67,2.88c-4.9,22.56-14.08,39.48-27.52,50.76-13.45,11.28-31.68,16.92-54.71,16.92-18.42,0-32.35-4.02-41.78-12.05Z"/>
      <path d="M138.59,506.54l35.21-164.55h68.41c18.27,0,31.98,3.21,41.12,9.62,9.14,6.41,13.7,15.67,13.7,27.76,0,3.84-.45,7.96-1.34,12.39l-.67,3.54c-2.23,9.88-6.32,18.32-12.26,25.32-5.94,7-13.37,11.76-22.28,14.27l-.22.66c10.99,2.8,16.49,11.36,16.49,25.66,0,3.39-.37,7.67-1.11,12.83l-2.23,13.27c-.75,4.42-1.11,8.63-1.11,12.61,0,2.65.22,4.87.67,6.63h-53.93c-.3-5.01.59-13.71,2.67-26.1l1.34-10.17c.3-2.06.45-3.54.45-4.42,0-3.54-1-6.19-3.01-7.96-2.01-1.77-5.16-2.65-9.47-2.65h-7.13l-10.92,51.31h-54.37ZM221.49,419.62c4.46,0,8.17-1.33,11.14-3.98,2.97-2.65,5.2-7.22,6.69-13.71l.67-3.54c.45-2.21.67-4.2.67-5.97,0-3.39-.89-5.86-2.67-7.41-1.78-1.55-4.46-2.32-8.02-2.32h-10.47l-7.8,36.94h9.81Z"/>
      <path d="M393.75,506.54h-110.98l35.21-164.55h108.97l-9.14,42.46h-54.37l-4.46,19.68h48.58l-8.02,38.48h-48.58l-4.68,20.79h56.6l-9.14,43.13Z"/>
      <path d="M547.73,341.99l5.57,164.55h-55.71l.89-24.55h-33.65l-9.58,24.55h-56.6l75.54-164.55h73.54ZM496.25,401.71l-16.27,41.36h19.83l1.56-41.14.89-15.26h-.67l-5.35,15.04Z"/>
      <path d="M627.51,506.54h-54.37l25.85-121.42h-32.31l9.36-43.13h119l-9.14,43.13h-32.54l-25.85,121.42Z"/>
      <path d="M724.45,506.54h-54.37l35.21-164.55h54.37l-35.21,164.55Z"/>
      <path d="M773.7,506.54l-4.9-164.55h55.49l-5.12,111.03-.89,10.4h.45l3.57-10.17,42.79-111.25h56.83l-75.77,164.55h-72.42Z"/>
      <path d="M1006.57,506.54h-110.98l35.21-164.55h108.97l-9.14,42.46h-54.37l-4.46,19.68h48.58l-8.02,38.48h-48.58l-4.68,20.79h56.6l-9.14,43.13Z"/>
    </g>
  </g>
</svg>
