<?xml version="1.0" encoding="UTF-8" standalone="no"?>
<svg
   width="1094"
   height="140.416"
   viewBox="0 0 1094 140.416"
   version="1.1"
   xmlns="http://www.w3.org/2000/svg">
  <g id="g2" transform="translate(0,-86.154)">
    <path
       d="M 126.56384,140.37001 V 90.054432 H 0 V 226.56956 H 73.615671 V 197.31632 H 122.62718 V 150.70616 H 73.615671 v -10.33615 z m 139.5549,-6.82575 V 90.054432 H 136.60239 V 226.56956 H 266.11874 V 183.07975 H 210.21807 V 172.7436 h 51.96401 V 143.8804 H 210.21807 V 133.54426 Z M 351.34766,86.154 c -13.97517,0 -25.78517,0.975108 -35.62684,2.535282 -9.84167,1.755194 -17.715,4.485497 -23.81684,7.995886 -6.29866,3.705412 -10.82583,8.385932 -13.5815,14.041552 -2.75567,5.85065 -4.1335,12.67641 -4.1335,20.6723 0,7.60584 1.181,14.04155 3.543,19.30714 2.362,5.26558 6.29867,9.55606 11.41634,12.87142 5.11766,3.51039 11.61316,5.85065 19.4865,7.41083 7.87333,1.56017 17.51817,2.34026 28.54084,2.34026 0,3.12035 -1.57467,5.07056 -4.33034,6.24069 -2.75566,1.17013 -7.47967,1.7552 -14.172,1.7552 -8.66067,0 -16.73083,-0.78009 -24.2105,-2.34026 -7.47967,-1.56018 -13.38467,-3.90044 -17.51817,-6.63074 l -2.362,52.46081 c 11.41633,1.95022 22.24217,3.51039 32.4775,4.29048 10.23534,0.9751 20.47067,1.36515 30.70601,1.36515 13.77833,0 25.3915,-0.78008 35.23317,-2.53528 9.64483,-1.56017 17.51817,-4.29048 23.62,-7.99589 6.10183,-3.51039 10.629,-8.38592 13.38466,-14.23657 2.75567,-5.85065 4.33034,-12.87143 4.33034,-21.06233 0,-15.2117 -4.92084,-26.32793 -14.7625,-33.15368 -9.84167,-6.63074 -25.3915,-10.14113 -46.25584,-10.14113 0,-2.92532 1.181,-4.87554 3.93667,-6.04567 2.75567,-1.17013 7.28283,-1.75519 13.5815,-1.75519 7.6765,0 14.7625,0.78008 21.45484,2.34026 6.4955,1.56017 11.61316,3.70541 15.35299,6.24068 l 2.16517,-50.315573 c -9.448,-1.950216 -18.896,-3.315368 -28.54083,-4.290475 C 371.42466,86.739065 361.58299,86.154 351.34766,86.154 Z m 192.89662,57.7264 V 90.054432 H 414.72795 V 143.8804 h 27.95033 v 82.68916 h 73.61567 V 143.8804 Z m 82.67012,82.68916 V 90.054432 H 553.29876 V 226.56956 Z m 148.80598,0 26.37565,-136.515128 h -75.78082 l -5.31451,86.979648 h -5.51135 L 710.17489,90.054432 H 633.21305 L 659.5887,226.56956 Z m 96.25152,-19.50215 h 19.48651 l 1.77145,19.50215 h 76.76501 L 944.60342,90.054432 H 820.00786 L 794.61635,226.56956 h 75.58404 z m 12.99097,-73.32813 3.34618,36.46904 h -12.99102 l 3.14935,-36.46904 z M 1049.9094,172.7436 V 90.054432 H 976.29364 V 226.56956 H 1094 V 172.7436 Z"
       fill="#ffffff" />
  </g>
</svg>
