<?xml version="1.0" encoding="UTF-8" standalone="no"?>
<!-- Created with Inkscape (http://www.inkscape.org/) -->

<svg
   version="1.1"
   id="svg1"
   width="1000"
   height="116.22773"
   viewBox="0 0 1000 116.22773"
   xmlns="http://www.w3.org/2000/svg"
   xmlns:svg="http://www.w3.org/2000/svg">
  <defs
     id="defs1" />
  <path
     style="font-weight:bold;font-size:157.051px;line-height:0.9;font-family:'Burbank Big Regular';-inkscape-font-specification:'Burbank Big Regular,  Bold';letter-spacing:0px;word-spacing:-34.5511px;fill:#000100;fill-opacity:1;stroke-width:13.176;paint-order:markers stroke fill"
     d="m 910.67798,112.4734 q 0.15637,-23.46455 0.15637,-43.17477 0.15648,-19.71022 0.15648,-34.25824 0,-16.89448 -0.15648,-30.81678 16.89457,-2.81574 30.3475,-2.81574 30.34777,0 44.58307,14.39159 Q 1000,30.19105 1000,59.44352 q 0,14.70445 -3.91078,25.18529 -3.7543,10.32439 -11.5758,17.0509 -7.6651,6.57008 -19.2409,9.69869 -11.57623,3.1286 -27.06278,3.1286 -6.25727,0 -13.14017,-0.62573 -6.88299,-0.46928 -14.39159,-1.40787 z m 34.41465,-24.40313 q 4.5365,0.31286 7.82157,-0.62572 3.44152,-0.93858 5.63177,-4.06719 2.34645,-3.28503 3.44145,-9.22939 1.2514,-5.94435 1.2514,-15.64303 0,-16.73805 -4.22351,-23.77741 -4.22396,-7.1958 -14.86126,-6.10079 0.15648,12.82729 0.31286,23.77741 0.15648,10.7937 0.31286,18.77164 0.15648,9.38583 0.31286,16.89448 z"
     id="path11" />
  <path
     style="font-weight:bold;font-size:157.051px;line-height:0.9;font-family:'Burbank Big Regular';-inkscape-font-specification:'Burbank Big Regular,  Bold';letter-spacing:0px;word-spacing:-34.5511px;fill:#000100;fill-opacity:1;stroke-width:13.176;paint-order:markers stroke fill"
     d="m 840.66747,111.3784 q 0,-15.17375 -0.15643,-32.69395 -0.15644,-15.01731 -0.31287,-34.25824 -0.15643,-19.24093 -0.46928,-40.35903 3.28503,0.15643 8.2908,0.15643 4.22362,0 10.48084,0 6.25721,0 15.01728,-0.15643 v 15.01731 q 0,8.7601 0.15648,23.93384 0.15638,15.17375 0.46924,39.10759 7.66509,0.31286 13.76588,0.46929 6.1008,0 10.32444,0 h 8.76004 q -0.31286,6.88294 -0.31286,12.35799 0,5.31863 0,9.07297 0,4.38005 0.15648,7.82151 -11.41939,-0.15643 -23.15174,-0.31286 Q 872.11,111.3784 862.41129,111.3784 Z"
     id="path10" />
  <path
     style="font-weight:bold;font-size:157.051px;line-height:0.9;font-family:'Burbank Big Regular';-inkscape-font-specification:'Burbank Big Regular,  Bold';letter-spacing:0px;word-spacing:-34.5511px;fill:#000100;fill-opacity:1;stroke-width:13.176;paint-order:markers stroke fill"
     d="m 783.56364,56.78421 q 8.44723,0.46928 13.453,-2.65932 5.00578,-3.28504 5.00578,-12.04514 0,-6.88293 -3.5979,-11.26298 -3.44147,-4.38005 -10.7937,-4.38005 -2.03359,0 -4.53648,0.46929 0.15644,6.25722 0.15644,11.73227 0,5.31864 0.15643,9.38582 0,4.84934 0.15643,8.76011 z m 19.55379,58.66137 q -1.56431,-4.22362 -3.75433,-9.85511 -1.87716,-4.69291 -4.53648,-11.41941 -2.65932,-6.88294 -6.25721,-15.33018 -0.78216,0.15643 -1.5643,0.15643 -0.78216,0.15643 -1.72074,0.15643 -0.93858,0 -1.72073,0 l 0.62572,31.28607 h -10.63727 q -4.84934,0 -10.95012,0 -6.10078,0 -12.35799,0.15643 0.15643,-12.51443 0.31286,-28.78318 0.15643,-13.9223 0.15643,-33.4761 Q 750.8697,28.62674 750.8697,3.75432 769.64134,0 784.50222,0 q 25.18528,0 38.48186,10.48082 13.29658,10.32441 13.14015,30.03462 0,11.73228 -4.69291,19.08451 -4.53648,7.35222 -12.51443,11.73227 2.65932,5.78793 7.35223,15.79947 4.69291,9.85511 12.04514,24.87242 -4.38005,0.31286 -9.69869,0.93859 -4.53647,0.46929 -11.10655,1.095 -6.41365,0.62573 -14.39159,1.40788 z"
     id="path9" />
  <path
     style="font-weight:bold;font-size:157.051px;line-height:0.9;font-family:'Burbank Big Regular';-inkscape-font-specification:'Burbank Big Regular,  Bold';letter-spacing:0px;word-spacing:-34.5511px;fill:#000100;fill-opacity:1;stroke-width:13.176;paint-order:markers stroke fill"
     d="m 698.0313,89.47815 q 2.50288,0 4.38004,-1.25145 1.87718,-1.25144 3.12861,-4.69291 1.40787,-3.44146 2.0336,-9.54225 0.78215,-6.25721 0.78215,-15.95589 0,-9.54225 -0.78215,-15.64303 -0.62573,-6.10079 -2.0336,-9.54225 -1.25143,-3.59791 -3.28504,-4.84934 -2.03359,-1.40788 -4.53648,-1.40788 -2.65931,0 -4.69291,1.56431 -2.03359,1.40787 -3.28503,5.16219 -1.25144,3.5979 -1.87717,9.85511 -0.62571,6.10079 -0.62571,15.48661 0,8.91653 0.62571,14.86088 0.78216,5.94435 2.0336,9.54225 1.40787,3.44147 3.44147,5.00577 2.03359,1.40788 4.69291,1.40788 z m -0.15643,25.34171 q -23.46455,-0.15643 -35.35326,-14.39159 -11.88871,-14.23516 -12.20157,-41.7669 -0.15643,-13.45302 2.97218,-24.09027 3.12861,-10.7937 9.07296,-18.30235 6.10079,-7.50866 14.86088,-11.41942 8.91653,-4.06719 20.33594,-4.06719 12.67086,0 21.58739,3.91077 9.07296,3.91075 14.86088,11.41941 5.94435,7.35223 8.60367,18.14591 2.81575,10.63727 2.81575,24.24671 -0.15643,15.01731 -3.5979,25.811 -3.28504,10.63726 -9.54225,17.5202 -6.10078,6.72651 -14.86088,9.85511 -8.7601,3.12861 -19.55379,3.12861 z"
     id="path8" />
  <path
     style="font-weight:bold;font-size:157.051px;line-height:0.9;font-family:'Burbank Big Regular';-inkscape-font-specification:'Burbank Big Regular,  Bold';letter-spacing:0px;word-spacing:-34.5511px;fill:#000100;fill-opacity:1;stroke-width:13.176;paint-order:markers stroke fill"
     d="m 588.99688,116.22773 q -1.72073,-23.46455 -3.28503,-41.14118 -1.40788,-17.67663 -2.65931,-29.8782 -2.19003,16.26877 -3.59791,28.3139 -1.40787,11.8887 -2.34645,19.86665 -1.09501,9.38582 -1.72073,15.79946 -13.45301,-0.62571 -22.52598,-0.78214 -8.91652,-0.31287 -14.39158,-0.62573 -6.41365,-0.15643 -10.01154,-0.31286 -1.09502,-15.0173 -2.19003,-29.25247 -1.09501,-14.23516 -2.34645,-27.21888 -1.09502,-13.14014 -2.19002,-24.716 -0.93859,-11.57584 -1.87718,-20.96166 6.72652,0 12.8273,0 6.2572,-0.15643 11.10655,-0.31286 5.63149,-0.15643 10.48083,-0.15643 0.31286,21.27453 0.93858,39.57688 0.62572,18.14592 1.25145,31.28607 2.81574,-19.71023 4.53648,-32.22466 1.72073,-12.51443 2.81574,-19.86664 1.25144,-8.60368 1.87717,-12.82729 9.85511,0 16.58161,0.15643 6.88293,0 11.10655,0 5.00577,0.15643 8.13438,0.15643 2.65932,24.71598 5.00577,43.01834 2.34646,18.14592 4.06719,29.87819 0.78216,-24.87242 1.09502,-40.67189 0.46928,-15.95589 0.78214,-25.34171 0.15643,-10.95012 0.15643,-16.58161 8.91653,0.31286 15.33018,0.46929 6.57007,0.15643 10.63726,0.15643 h 7.97795 q -2.50289,30.03462 -4.06719,51.30915 -1.56431,21.11809 -2.50288,34.88396 -1.09502,16.11232 -1.87717,26.43673 -24.55956,1.09501 -36.91756,1.40788 -7.19579,0.15642 -12.20157,0.15642 z"
     id="path7" />
  <path
     style="font-weight:bold;font-size:157.051px;line-height:0.9;font-family:'Burbank Big Regular';-inkscape-font-specification:'Burbank Big Regular,  Bold';letter-spacing:0px;word-spacing:-34.5511px;fill:#000100;fill-opacity:1;stroke-width:7.16827;paint-order:markers stroke fill"
     d="m 463.36894,87.75558 q 0,-7.31894 -0.0851,-16.42507 -0.0851,-7.82955 -0.25532,-18.55266 -0.17022,-10.7231 -0.34042,-23.65891 3.82969,-0.0851 9.44654,-0.1702 4.76583,-0.0851 11.91456,-0.17021 7.14873,-0.0851 16.76549,-0.25531 v 4.25519 q 0,2.0425 0,5.02114 0,2.89353 0.1702,6.6381 -2.55312,0 -5.61686,0.0852 -2.63822,0.0851 -6.29769,0.17021 -3.65948,0 -7.99977,0.1702 -0.0852,1.70208 -0.0852,2.97865 0.0852,1.19145 0.0852,2.04249 v 1.70209 h 3.40416 q 1.87228,0 4.85092,0 3.06375,0 7.74445,-0.0851 -0.0851,1.53187 -0.0851,3.74457 0,1.87229 0,4.59562 0,2.63823 0.17021,6.21259 h -3.82969 q -1.95738,0 -4.93602,0 -2.89354,-0.0851 -6.97854,-0.0851 0,1.61698 0,2.80844 0.0852,1.19145 0.17021,2.04249 0.0852,0.93615 0.0852,1.61698 1.87228,0.0851 4.68072,0.17021 2.38291,0.0851 5.95728,0.25531 3.65946,0.0851 8.6806,0.17021 -0.0851,1.70207 -0.0851,3.99988 -0.0851,1.95739 -0.0851,4.85093 0,2.89354 0,6.72321 -4.93603,-0.17021 -10.89331,-0.3404 -5.10624,-0.17022 -11.91456,-0.25532 -6.80832,-0.0851 -14.63789,-0.25532 z"
     id="path6" />
  <path
     style="font-weight:bold;font-size:157.051px;line-height:0.9;font-family:'Burbank Big Regular';-inkscape-font-specification:'Burbank Big Regular,  Bold';letter-spacing:0px;word-spacing:-34.5511px;fill:#000100;fill-opacity:1;stroke-width:7.16827;paint-order:markers stroke fill"
     d="m 438.79896,71.41562 q -1.10635,0 -2.89353,0 -1.78718,0 -5.36155,0.0851 l 0.2553,14.9783 q -2.55311,-0.0851 -5.44666,-0.0851 -2.55311,0 -5.87216,0.0851 -3.31906,0 -7.14874,0.0851 V 70.99009 q 0,-7.48914 -0.0851,-17.70162 -0.0851,-10.29759 -0.25531,-22.89298 h 4.76582 q 2.29781,0 5.70198,0 3.40415,0 7.74445,-0.0851 v 7.06364 q 0,3.40416 0,8.16998 0.0851,4.68072 0.17021,10.55289 0.85104,0 2.80843,0.0852 1.95739,0 5.53176,0 l -0.25532,-28.68004 q 2.29782,0.0851 5.19135,0.0851 2.46801,0 5.87218,0 3.48926,0 7.57425,-0.17021 V 45.5441 q 0,8.5104 0,19.82923 0.0851,11.23373 0.25531,24.33974 -2.29781,-0.0851 -5.19134,-0.17021 -2.46802,-0.0852 -5.87218,-0.0852 -3.40415,0.0852 -7.48915,0.17021 z"
     id="path5" />
  <path
     style="font-weight:bold;font-size:157.051px;line-height:0.9;font-family:'Burbank Big Regular';-inkscape-font-specification:'Burbank Big Regular,  Bold';letter-spacing:0px;word-spacing:-34.5511px;fill:#000100;fill-opacity:1;stroke-width:7.16827;paint-order:markers stroke fill"
     d="m 367.48162,45.88442 v -4.3403 q 0,-2.2127 0,-5.27644 0,-3.14885 -0.0851,-7.31894 h 14.12726 q 6.21259,0 13.70174,0 7.48915,0 14.63789,-0.17021 0,2.2978 -0.0851,5.02113 -0.0851,2.29781 -0.17021,5.44665 0,3.06375 0.0851,6.63811 h -3.40416 q -1.61697,0 -3.82967,0 -2.12761,0 -4.59563,-0.0851 0,7.40405 0.0851,17.78674 0.0851,10.38267 0.25532,24.76525 h -5.19134 q -2.46801,0 -5.87217,0 -3.40416,0 -7.57426,0.0851 V 76.94739 q 0,-5.61688 -0.0851,-13.44643 0,-7.82957 -0.0851,-17.70164 z"
     id="path4" />
  <path
     style="font-weight:bold;font-size:157.051px;line-height:0.9;font-family:'Burbank Big Regular';-inkscape-font-specification:'Burbank Big Regular,  Bold';letter-spacing:0px;word-spacing:-34.5511px;fill:#000100;fill-opacity:1;stroke-width:13.176;paint-order:markers stroke fill"
     d="m 274.25935,111.22196 q 0,-13.45301 -0.15643,-30.19106 -0.15643,-14.39159 -0.4693,-34.1018 -0.31286,-19.71023 -0.62572,-43.48764 7.03937,-0.15643 17.36377,-0.31286 8.7601,-0.15643 21.90025,-0.31286 13.14014,-0.15644 30.81678,-0.46929 v 7.82151 q 0,3.75434 0,9.22939 0,5.31863 0.31286,12.20157 -4.69291,0 -10.32441,0.15643 -4.84934,0.15643 -11.57584,0.31286 -6.7265,0 -14.70445,0.31286 -0.15644,3.12861 -0.15644,5.47507 0.15644,2.19002 0.15644,3.75432 v 3.12861 h 6.25722 q 3.44146,0 8.91652,0 5.63149,0 14.23516,-0.15643 -0.15643,2.81575 -0.15643,6.88293 0,3.44147 0,8.44724 0,4.84934 0.31286,11.41941 h -7.03936 q -3.5979,0 -9.07297,0 -5.31862,-0.15643 -12.82728,-0.15643 0,2.97218 0,5.1622 0.15643,2.19003 0.31286,3.75434 0.15643,1.72073 0.15643,2.97217 3.44146,0.15643 8.60367,0.31286 4.38004,0.15643 10.95012,0.46929 6.72651,0.15643 15.9559,0.31286 -0.15643,3.12861 -0.15643,7.35223 -0.15643,3.59789 -0.15643,8.91653 0,5.31863 0,12.35799 -9.07296,-0.31286 -20.02309,-0.62572 -9.38582,-0.31286 -21.90024,-0.46929 -12.51443,-0.15643 -26.90602,-0.46929 z"
     id="path3" />
  <path
     style="font-weight:bold;font-size:157.051px;line-height:0.9;font-family:'Burbank Big Regular';-inkscape-font-specification:'Burbank Big Regular,  Bold';letter-spacing:0px;word-spacing:-34.5511px;fill:#000100;fill-opacity:1;stroke-width:13.176;paint-order:markers stroke fill"
     d="m 198.91881,113.88127 q -4.06719,-23.7774 -7.66508,-43.33119 -3.5979,-19.5538 -6.25722,-33.63253 -3.1286,-16.42518 -5.94435,-29.40891 7.97794,0.15644 14.39159,0.15644 6.41364,-0.15644 11.10655,-0.31287 5.47507,-0.15643 9.85512,-0.15643 2.65931,25.18529 5.1622,45.05194 2.65932,19.71022 4.38005,31.4425 2.65931,-19.86665 4.69291,-34.88396 2.03359,-15.17375 3.28503,-25.49814 1.56431,-12.04514 2.50288,-20.96167 16.58162,0.31285 26.12387,0 5.47507,0 9.69868,-0.15643 -5.63148,30.19105 -9.54225,51.46558 -3.91075,21.11809 -6.57007,34.72753 -2.97218,15.95589 -4.84934,26.12387 h -15.4866 q -7.03936,0 -16.11233,-0.15644 -8.91653,-0.15643 -18.77164,-0.46929 z"
     id="path2" />
  <path
     style="font-weight:bold;font-size:157.051px;line-height:0.9;font-family:'Burbank Big Regular';-inkscape-font-specification:'Burbank Big Regular,  Bold';letter-spacing:0px;word-spacing:-34.5511px;fill:#000100;fill-opacity:1;stroke-width:13.176;paint-order:markers stroke fill"
     d="m 135.16459,26.59315 q -1.09502,6.25722 -2.81575,17.98949 -1.72073,11.57584 -3.91075,27.21887 h 13.453 z m -45.834087,82.75164 q 2.81574,-13.14014 6.25721,-29.72176 2.97218,-14.23516 6.882937,-33.63252 3.91076,-19.55379 8.60367,-43.17477 10.01154,-0.31287 19.0845,-0.46929 9.07295,-0.15643 16.11232,-0.31286 h 15.17375 q 2.97216,15.4866 6.57007,33.47609 3.12861,15.4866 7.19579,35.82254 4.06719,20.33595 8.7601,43.17478 -5.31864,-0.15644 -11.26298,-0.15644 -5.00577,0 -11.57585,0 -6.41364,0 -13.29658,0.15644 l -0.46928,-4.22362 q -0.31287,-2.19003 -0.78216,-5.31864 -0.46929,-3.1286 -1.09502,-7.66508 -3.75432,0 -8.91652,0 -5.00577,-0.15643 -11.57585,-0.15643 l -1.40787,12.35799 q -4.84934,0 -10.3244,-0.15643 -4.69291,0 -10.95012,0 -6.100787,-0.15643 -12.983717,0 z"
     id="path1" />
  <path
     style="font-weight:bold;font-size:157.051px;line-height:0.9;font-family:'Burbank Big Regular';-inkscape-font-specification:'Burbank Big Regular,  Bold';letter-spacing:0px;word-spacing:-34.5511px;fill:#000100;fill-opacity:1;stroke-width:13.176;paint-order:markers stroke fill"
     d="m 45.677658,114.507 q -22.838829,0 -34.101813,-10.63726 Q 0.312861,93.07604 0,73.36582 q 4.223619,0.15643 9.542251,0.15643 9.38582,0 26.123865,-0.46929 0.156431,7.97794 2.502886,12.35799 2.502885,4.22363 7.665087,4.22363 3.597897,0 5.475061,-1.87717 2.033594,-2.0336 2.033594,-6.57008 0,-2.03359 -0.938582,-3.75432 -0.782151,-1.72073 -2.972176,-3.28504 -2.190024,-1.5643 -6.100783,-2.97218 Q 39.420445,69.61149 33.163231,67.89076 25.341714,65.85717 19.397362,62.88499 13.453009,59.91281 9.38582,55.68919 5.318632,51.46557 3.285037,45.83408 1.251443,40.04616 1.251443,32.38107 q 0,-8.13438 3.128607,-14.07873 3.128606,-5.94435 8.760099,-9.85511 5.787922,-4.06719 13.609438,-5.94436 7.977947,-2.03359 17.520198,-2.03359 21.430958,-0.15643 32.693938,10.48084 11.26299,10.63725 11.57585,30.9732 -4.53648,-0.15643 -9.85512,-0.46929 -4.69291,-0.31286 -10.95012,-0.31286 -6.25721,-0.15643 -13.765868,-0.31286 0.312861,-8.29081 -2.033594,-11.88871 -2.346454,-3.59789 -6.570073,-3.59789 -3.754329,0 -5.787923,2.34645 -2.033594,2.19003 -2.033594,6.25721 0,5.00577 4.223619,8.29082 4.223619,3.1286 13.765869,5.31862 9.698684,2.19003 16.268754,5.1622 6.7265,2.81575 10.79369,6.88294 4.0672,3.91076 5.78793,9.22938 1.87716,5.16221 1.87716,12.04514 0,8.60368 -3.28503,15.01732 -3.12861,6.25721 -9.07297,10.48083 -5.78792,4.06719 -14.07873,6.10078 -8.134374,2.0336 -18.145915,2.0336 z"
     id="text1" />
</svg>
